
mtllib factory.mtl
v -32.0000 0.0000 -22.0000
v 32.0000 0.0000 -22.0000
v 32.0000 0.5000 -22.0000
v -32.0000 0.5000 -22.0000
v -32.0000 0.0000 22.0000
v 32.0000 0.0000 22.0000
v 32.0000 0.5000 22.0000
v -32.0000 0.5000 22.0000
v -15.0000 0.0000 -10.0000
v 15.0000 0.0000 -10.0000
v 15.0000 12.0000 -10.0000
v -15.0000 12.0000 -10.0000
v -15.0000 0.0000 10.0000
v 15.0000 0.0000 10.0000
v 15.0000 12.0000 10.0000
v -15.0000 12.0000 10.0000
v -16.0000 12.0000 -11.0000
v 16.0000 12.0000 -11.0000
v 16.0000 12.8000 -11.0000
v -16.0000 12.8000 -11.0000
v -16.0000 12.0000 11.0000
v 16.0000 12.0000 11.0000
v 16.0000 12.8000 11.0000
v -16.0000 12.8000 11.0000
v 15.0000 0.0000 -6.0000
v 29.0000 0.0000 -6.0000
v 29.0000 8.0000 -6.0000
v 15.0000 8.0000 -6.0000
v 15.0000 0.0000 6.0000
v 29.0000 0.0000 6.0000
v 29.0000 8.0000 6.0000
v 15.0000 8.0000 6.0000
v -10.8000 0.0000 -6.0000
v -10.8000 18.0000 -6.0000
v -10.8913 0.0000 -5.5408
v -10.8913 18.0000 -5.5408
v -11.1515 0.0000 -5.1515
v -11.1515 18.0000 -5.1515
v -11.5408 0.0000 -4.8913
v -11.5408 18.0000 -4.8913
v -12.0000 0.0000 -4.8000
v -12.0000 18.0000 -4.8000
v -12.4592 0.0000 -4.8913
v -12.4592 18.0000 -4.8913
v -12.8485 0.0000 -5.1515
v -12.8485 18.0000 -5.1515
v -13.1087 0.0000 -5.5408
v -13.1087 18.0000 -5.5408
v -13.2000 0.0000 -6.0000
v -13.2000 18.0000 -6.0000
v -13.1087 0.0000 -6.4592
v -13.1087 18.0000 -6.4592
v -12.8485 0.0000 -6.8485
v -12.8485 18.0000 -6.8485
v -12.4592 0.0000 -7.1087
v -12.4592 18.0000 -7.1087
v -12.0000 0.0000 -7.2000
v -12.0000 18.0000 -7.2000
v -11.5408 0.0000 -7.1087
v -11.5408 18.0000 -7.1087
v -11.1515 0.0000 -6.8485
v -11.1515 18.0000 -6.8485
v -10.8913 0.0000 -6.4592
v -10.8913 18.0000 -6.4592
v -12.0000 0.0000 -6.0000
v -12.0000 18.0000 -6.0000
v 13.0000 0.0000 8.0000
v 13.0000 12.0000 8.0000
v 12.8532 0.0000 8.9271
v 12.8532 12.0000 8.9271
v 12.4271 0.0000 9.7634
v 12.4271 12.0000 9.7634
v 11.7634 0.0000 10.4271
v 11.7634 12.0000 10.4271
v 10.9271 0.0000 10.8532
v 10.9271 12.0000 10.8532
v 10.0000 0.0000 11.0000
v 10.0000 12.0000 11.0000
v 9.0729 0.0000 10.8532
v 9.0729 12.0000 10.8532
v 8.2366 0.0000 10.4271
v 8.2366 12.0000 10.4271
v 7.5729 0.0000 9.7634
v 7.5729 12.0000 9.7634
v 7.1468 0.0000 8.9271
v 7.1468 12.0000 8.9271
v 7.0000 0.0000 8.0000
v 7.0000 12.0000 8.0000
v 7.1468 0.0000 7.0729
v 7.1468 12.0000 7.0729
v 7.5729 0.0000 6.2366
v 7.5729 12.0000 6.2366
v 8.2366 0.0000 5.5729
v 8.2366 12.0000 5.5729
v 9.0729 0.0000 5.1468
v 9.0729 12.0000 5.1468
v 10.0000 0.0000 5.0000
v 10.0000 12.0000 5.0000
v 10.9271 0.0000 5.1468
v 10.9271 12.0000 5.1468
v 11.7634 0.0000 5.5729
v 11.7634 12.0000 5.5729
v 12.4271 0.0000 6.2366
v 12.4271 12.0000 6.2366
v 12.8532 0.0000 7.0729
v 12.8532 12.0000 7.0729
v 10.0000 0.0000 8.0000
v 10.0000 12.0000 8.0000
usemtl factorymat
f 1 2 3 
f 1 3 4 
f 5 7 6 
f 5 8 7 
f 1 4 8 
f 1 8 5 
f 2 3 7 
f 2 7 6 
f 4 3 7 
f 4 7 8 
f 1 6 2 
f 1 5 6 
f 9 10 11 
f 9 11 12 
f 13 15 14 
f 13 16 15 
f 9 12 16 
f 9 16 13 
f 10 11 15 
f 10 15 14 
f 12 11 15 
f 12 15 16 
f 9 14 10 
f 9 13 14 
f 17 18 19 
f 17 19 20 
f 21 23 22 
f 21 24 23 
f 17 20 24 
f 17 24 21 
f 18 19 23 
f 18 23 22 
f 20 19 23 
f 20 23 24 
f 17 22 18 
f 17 21 22 
f 25 26 27 
f 25 27 28 
f 29 31 30 
f 29 32 31 
f 25 28 32 
f 25 32 29 
f 26 27 31 
f 26 31 30 
f 28 27 31 
f 28 31 32 
f 25 30 26 
f 25 29 30 
f 33 36 34 
f 33 35 36 
f 65 33 35 
f 66 36 34 
f 35 38 36 
f 35 37 38 
f 65 35 37 
f 66 38 36 
f 37 40 38 
f 37 39 40 
f 65 37 39 
f 66 40 38 
f 39 42 40 
f 39 41 42 
f 65 39 41 
f 66 42 40 
f 41 44 42 
f 41 43 44 
f 65 41 43 
f 66 44 42 
f 43 46 44 
f 43 45 46 
f 65 43 45 
f 66 46 44 
f 45 48 46 
f 45 47 48 
f 65 45 47 
f 66 48 46 
f 47 50 48 
f 47 49 50 
f 65 47 49 
f 66 50 48 
f 49 52 50 
f 49 51 52 
f 65 49 51 
f 66 52 50 
f 51 54 52 
f 51 53 54 
f 65 51 53 
f 66 54 52 
f 53 56 54 
f 53 55 56 
f 65 53 55 
f 66 56 54 
f 55 58 56 
f 55 57 58 
f 65 55 57 
f 66 58 56 
f 57 60 58 
f 57 59 60 
f 65 57 59 
f 66 60 58 
f 59 62 60 
f 59 61 62 
f 65 59 61 
f 66 62 60 
f 61 64 62 
f 61 63 64 
f 65 61 63 
f 66 64 62 
f 63 34 64 
f 63 33 34 
f 65 63 33 
f 66 34 64 
f 67 70 68 
f 67 69 70 
f 107 67 69 
f 108 70 68 
f 69 72 70 
f 69 71 72 
f 107 69 71 
f 108 72 70 
f 71 74 72 
f 71 73 74 
f 107 71 73 
f 108 74 72 
f 73 76 74 
f 73 75 76 
f 107 73 75 
f 108 76 74 
f 75 78 76 
f 75 77 78 
f 107 75 77 
f 108 78 76 
f 77 80 78 
f 77 79 80 
f 107 77 79 
f 108 80 78 
f 79 82 80 
f 79 81 82 
f 107 79 81 
f 108 82 80 
f 81 84 82 
f 81 83 84 
f 107 81 83 
f 108 84 82 
f 83 86 84 
f 83 85 86 
f 107 83 85 
f 108 86 84 
f 85 88 86 
f 85 87 88 
f 107 85 87 
f 108 88 86 
f 87 90 88 
f 87 89 90 
f 107 87 89 
f 108 90 88 
f 89 92 90 
f 89 91 92 
f 107 89 91 
f 108 92 90 
f 91 94 92 
f 91 93 94 
f 107 91 93 
f 108 94 92 
f 93 96 94 
f 93 95 96 
f 107 93 95 
f 108 96 94 
f 95 98 96 
f 95 97 98 
f 107 95 97 
f 108 98 96 
f 97 100 98 
f 97 99 100 
f 107 97 99 
f 108 100 98 
f 99 102 100 
f 99 101 102 
f 107 99 101 
f 108 102 100 
f 101 104 102 
f 101 103 104 
f 107 101 103 
f 108 104 102 
f 103 106 104 
f 103 105 106 
f 107 103 105 
f 108 106 104 
f 105 68 106 
f 105 67 68 
f 107 105 67 
f 108 68 106 
